<svg xmlns="http://www.w3.org/2000/svg" width="1000" height="520" viewBox="0 0 1000 520">
<rect width="100%" height="100%" fill="#fbfaf7"/>
<text x="500.0" y="34" text-anchor="middle" font-family="Helvetica, Arial, sans-serif" font-size="22" fill="#1a1a1a">Average Exact Rent By Query Day</text>
<line x1="90" y1="410" x2="960" y2="410" stroke="#333" stroke-width="1.5"/>
<line x1="90" y1="60" x2="90" y2="410" stroke="#333" stroke-width="1.5"/>
<line x1="90" y1="410.00" x2="960" y2="410.00" stroke="#d9d5cf" stroke-width="1"/>
<text x="80" y="415.00" text-anchor="end" font-family="Helvetica, Arial, sans-serif" font-size="12" fill="#444">3928</text>
<line x1="90" y1="322.50" x2="960" y2="322.50" stroke="#d9d5cf" stroke-width="1"/>
<text x="80" y="327.50" text-anchor="end" font-family="Helvetica, Arial, sans-serif" font-size="12" fill="#444">3929</text>
<line x1="90" y1="235.00" x2="960" y2="235.00" stroke="#d9d5cf" stroke-width="1"/>
<text x="80" y="240.00" text-anchor="end" font-family="Helvetica, Arial, sans-serif" font-size="12" fill="#444">3930</text>
<line x1="90" y1="147.50" x2="960" y2="147.50" stroke="#d9d5cf" stroke-width="1"/>
<text x="80" y="152.50" text-anchor="end" font-family="Helvetica, Arial, sans-serif" font-size="12" fill="#444">3931</text>
<line x1="90" y1="60.00" x2="960" y2="60.00" stroke="#d9d5cf" stroke-width="1"/>
<text x="80" y="65.00" text-anchor="end" font-family="Helvetica, Arial, sans-serif" font-size="12" fill="#444">3932</text>
<text x="24" y="235.0" transform="rotate(-90 24 235.0)" font-family="Helvetica, Arial, sans-serif" font-size="14" fill="#444">Exact Price ($)</text>
<line x1="90.00" y1="410" x2="90.00" y2="416" stroke="#333" stroke-width="1"/>
<text x="90.00" y="434" text-anchor="end" transform="rotate(-35 90.00 434)" font-family="Helvetica, Arial, sans-serif" font-size="12" fill="#444">2026-04-06</text>
<line x1="525.00" y1="410" x2="525.00" y2="416" stroke="#333" stroke-width="1"/>
<text x="525.00" y="434" text-anchor="end" transform="rotate(-35 525.00 434)" font-family="Helvetica, Arial, sans-serif" font-size="12" fill="#444">2026-04-07</text>
<line x1="960.00" y1="410" x2="960.00" y2="416" stroke="#333" stroke-width="1"/>
<text x="960.00" y="434" text-anchor="end" transform="rotate(-35 960.00 434)" font-family="Helvetica, Arial, sans-serif" font-size="12" fill="#444">2026-04-08</text>
<polyline fill="none" stroke="#1f5aa6" stroke-width="3" points="90.00,235.00 525.00,235.00 960.00,235.00"/>
<circle cx="90.00" cy="235.00" r="4.5" fill="#1f5aa6"/>
<circle cx="525.00" cy="235.00" r="4.5" fill="#1f5aa6"/>
<circle cx="960.00" cy="235.00" r="4.5" fill="#1f5aa6"/>
<line x1="780" y1="70" x2="800" y2="70" stroke="#1f5aa6" stroke-width="3"/>
<text x="808" y="74" font-family="Helvetica, Arial, sans-serif" font-size="12" fill="#444">Average Exact Price</text>
</svg>